<?xml version="1.0" encoding="UTF-8" standalone="no"?>
<!DOCTYPE svg PUBLIC "-//W3C//DTD SVG 1.1//EN"
 "http://www.w3.org/Graphics/SVG/1.1/DTD/svg11.dtd">
<!-- Generated by graphviz version 2.30.1 (20130511.1658)
 -->
<!-- Title: controllers_diagram Pages: 1 -->
<svg width="468pt" height="585pt"
 viewBox="0.00 0.00 468.00 585.16" xmlns="http://www.w3.org/2000/svg" xmlns:xlink="http://www.w3.org/1999/xlink">
<g id="graph0" class="graph" transform="scale(1 1) rotate(0) translate(4 581.16)">
<title>controllers_diagram</title>
<polygon fill="white" stroke="white" points="-4,5 -4,-581.16 465,-581.16 465,5 -4,5"/>
<!-- _diagram_info -->
<g id="node1" class="node"><title>_diagram_info</title>
<text text-anchor="start" x="260" y="-189.6" font-family="Times,serif" font-size="13.00">Controllers diagram</text>
<text text-anchor="start" x="260" y="-175.6" font-family="Times,serif" font-size="13.00">Date: Jun 21 2013 &#45; 10:50</text>
<text text-anchor="start" x="260" y="-161.6" font-family="Times,serif" font-size="13.00">Migration version: 20130507165823</text>
<text text-anchor="start" x="260" y="-147.6" font-family="Times,serif" font-size="13.00">Generated by RailRoady 1.1.0</text>
<text text-anchor="start" x="260" y="-133.6" font-family="Times,serif" font-size="13.00">http://railroady.prestonlee.com</text>
</g>
<!-- ApplicationController -->
<g id="node2" class="node"><title>ApplicationController</title>
<path fill="none" stroke="black" d="M91.3057,-261.66C91.3057,-261.66 276.306,-261.66 276.306,-261.66 282.306,-261.66 288.306,-267.66 288.306,-273.66 288.306,-273.66 288.306,-357.66 288.306,-357.66 288.306,-363.66 282.306,-369.66 276.306,-369.66 276.306,-369.66 91.3057,-369.66 91.3057,-369.66 85.3057,-369.66 79.3057,-363.66 79.3057,-357.66 79.3057,-357.66 79.3057,-273.66 79.3057,-273.66 79.3057,-267.66 85.3057,-261.66 91.3057,-261.66"/>
<text text-anchor="middle" x="183.806" y="-354.46" font-family="Times,serif" font-size="14.00">ApplicationController</text>
<polyline fill="none" stroke="black" points="79.3057,-346.66 288.306,-346.66 "/>
<text text-anchor="start" x="87.3057" y="-331.46" font-family="Times,serif" font-size="14.00">_one_time_conditions_valid_18?</text>
<text text-anchor="start" x="87.3057" y="-316.46" font-family="Times,serif" font-size="14.00">_one_time_conditions_valid_20?</text>
<polyline fill="none" stroke="black" points="79.3057,-308.66 288.306,-308.66 "/>
<polyline fill="none" stroke="black" points="79.3057,-284.66 288.306,-284.66 "/>
<text text-anchor="start" x="87.3057" y="-269.46" font-family="Times,serif" font-size="14.00">_layout</text>
</g>
<!-- HomeController -->
<g id="node3" class="node"><title>HomeController</title>
<path fill="none" stroke="black" d="M344.724,-300.965C344.724,-300.965 432.724,-300.965 432.724,-300.965 438.724,-300.965 444.724,-306.965 444.724,-312.965 444.724,-312.965 444.724,-381.965 444.724,-381.965 444.724,-387.965 438.724,-393.965 432.724,-393.965 432.724,-393.965 344.724,-393.965 344.724,-393.965 338.724,-393.965 332.724,-387.965 332.724,-381.965 332.724,-381.965 332.724,-312.965 332.724,-312.965 332.724,-306.965 338.724,-300.965 344.724,-300.965"/>
<text text-anchor="middle" x="388.724" y="-378.765" font-family="Times,serif" font-size="14.00">HomeController</text>
<polyline fill="none" stroke="black" points="332.724,-370.965 444.724,-370.965 "/>
<text text-anchor="start" x="340.724" y="-355.765" font-family="Times,serif" font-size="14.00">index</text>
<polyline fill="none" stroke="black" points="332.724,-347.965 444.724,-347.965 "/>
<polyline fill="none" stroke="black" points="332.724,-323.965 444.724,-323.965 "/>
<text text-anchor="start" x="340.724" y="-308.765" font-family="Times,serif" font-size="14.00">_layout</text>
</g>
<!-- ApplicationController&#45;&gt;HomeController -->
<g id="edge1" class="edge"><title>ApplicationController&#45;&gt;HomeController</title>
<path fill="none" stroke="black" d="M288.366,-331.888C303.66,-334.262 318.892,-336.626 332.697,-338.769"/>
</g>
<!-- VlanIpsController -->
<g id="node4" class="node"><title>VlanIpsController</title>
<path fill="none" stroke="black" d="M61.3747,-0.5C61.3747,-0.5 158.375,-0.5 158.375,-0.5 164.375,-0.5 170.375,-6.5 170.375,-12.5 170.375,-12.5 170.375,-231.5 170.375,-231.5 170.375,-237.5 164.375,-243.5 158.375,-243.5 158.375,-243.5 61.3747,-243.5 61.3747,-243.5 55.3747,-243.5 49.3747,-237.5 49.3747,-231.5 49.3747,-231.5 49.3747,-12.5 49.3747,-12.5 49.3747,-6.5 55.3747,-0.5 61.3747,-0.5"/>
<text text-anchor="middle" x="109.875" y="-228.3" font-family="Times,serif" font-size="14.00">VlanIpsController</text>
<polyline fill="none" stroke="black" points="49.3747,-220.5 170.375,-220.5 "/>
<text text-anchor="start" x="57.3747" y="-205.3" font-family="Times,serif" font-size="14.00">create</text>
<text text-anchor="start" x="57.3747" y="-190.3" font-family="Times,serif" font-size="14.00">destroy</text>
<text text-anchor="start" x="57.3747" y="-175.3" font-family="Times,serif" font-size="14.00">edit</text>
<text text-anchor="start" x="57.3747" y="-160.3" font-family="Times,serif" font-size="14.00">email</text>
<text text-anchor="start" x="57.3747" y="-145.3" font-family="Times,serif" font-size="14.00">index</text>
<text text-anchor="start" x="57.3747" y="-130.3" font-family="Times,serif" font-size="14.00">new</text>
<text text-anchor="start" x="57.3747" y="-115.3" font-family="Times,serif" font-size="14.00">release</text>
<text text-anchor="start" x="57.3747" y="-100.3" font-family="Times,serif" font-size="14.00">report</text>
<text text-anchor="start" x="57.3747" y="-85.3" font-family="Times,serif" font-size="14.00">send_email</text>
<text text-anchor="start" x="57.3747" y="-70.3" font-family="Times,serif" font-size="14.00">show</text>
<text text-anchor="start" x="57.3747" y="-55.3" font-family="Times,serif" font-size="14.00">update</text>
<polyline fill="none" stroke="black" points="49.3747,-47.5 170.375,-47.5 "/>
<polyline fill="none" stroke="black" points="49.3747,-23.5 170.375,-23.5 "/>
<text text-anchor="start" x="57.3747" y="-8.3" font-family="Times,serif" font-size="14.00">_layout</text>
</g>
<!-- ApplicationController&#45;&gt;VlanIpsController -->
<g id="edge2" class="edge"><title>ApplicationController&#45;&gt;VlanIpsController</title>
<path fill="none" stroke="black" d="M163.113,-261.457C160.935,-255.75 158.662,-249.797 156.335,-243.702"/>
</g>
<!-- VlansController -->
<g id="node5" class="node"><title>VlansController</title>
<path fill="none" stroke="black" d="M12,-378.66C12,-378.66 97,-378.66 97,-378.66 103,-378.66 109,-384.66 109,-390.66 109,-390.66 109,-564.66 109,-564.66 109,-570.66 103,-576.66 97,-576.66 97,-576.66 12,-576.66 12,-576.66 6,-576.66 0,-570.66 0,-564.66 0,-564.66 0,-390.66 0,-390.66 0,-384.66 6,-378.66 12,-378.66"/>
<text text-anchor="middle" x="54.5" y="-561.46" font-family="Times,serif" font-size="14.00">VlansController</text>
<polyline fill="none" stroke="black" points="0,-553.66 109,-553.66 "/>
<text text-anchor="start" x="8" y="-538.46" font-family="Times,serif" font-size="14.00">create</text>
<text text-anchor="start" x="8" y="-523.46" font-family="Times,serif" font-size="14.00">destroy</text>
<text text-anchor="start" x="8" y="-508.46" font-family="Times,serif" font-size="14.00">edit</text>
<text text-anchor="start" x="8" y="-493.46" font-family="Times,serif" font-size="14.00">index</text>
<text text-anchor="start" x="8" y="-478.46" font-family="Times,serif" font-size="14.00">new</text>
<text text-anchor="start" x="8" y="-463.46" font-family="Times,serif" font-size="14.00">set</text>
<text text-anchor="start" x="8" y="-448.46" font-family="Times,serif" font-size="14.00">show</text>
<text text-anchor="start" x="8" y="-433.46" font-family="Times,serif" font-size="14.00">update</text>
<polyline fill="none" stroke="black" points="0,-425.66 109,-425.66 "/>
<polyline fill="none" stroke="black" points="0,-401.66 109,-401.66 "/>
<text text-anchor="start" x="8" y="-386.46" font-family="Times,serif" font-size="14.00">_layout</text>
</g>
<!-- ApplicationController&#45;&gt;VlansController -->
<g id="edge3" class="edge"><title>ApplicationController&#45;&gt;VlansController</title>
<path fill="none" stroke="black" d="M140.389,-370.054C130.338,-382.647 119.516,-396.205 109.055,-409.31"/>
</g>
</g>
</svg>
