<?xml version="1.0" encoding="UTF-8" standalone="no"?>
<!DOCTYPE svg PUBLIC "-//W3C//DTD SVG 1.1//EN"
 "http://www.w3.org/Graphics/SVG/1.1/DTD/svg11.dtd">
<!-- Generated by graphviz version 2.30.1 (20130511.1658)
 -->
<!-- Title: models_diagram Pages: 1 -->
<svg width="668pt" height="424pt"
 viewBox="0.00 0.00 668.00 424.00" xmlns="http://www.w3.org/2000/svg" xmlns:xlink="http://www.w3.org/1999/xlink">
<g id="graph0" class="graph" transform="scale(1 1) rotate(0) translate(4 420)">
<title>models_diagram</title>
<polygon fill="white" stroke="white" points="-4,5 -4,-420 665,-420 665,5 -4,5"/>
<!-- _diagram_info -->
<g id="node1" class="node"><title>_diagram_info</title>
<text text-anchor="start" x="8" y="-326.6" font-family="Times,serif" font-size="13.00">Models diagram</text>
<text text-anchor="start" x="8" y="-312.6" font-family="Times,serif" font-size="13.00">Date: Jun 21 2013 &#45; 10:49</text>
<text text-anchor="start" x="8" y="-298.6" font-family="Times,serif" font-size="13.00">Migration version: 20130507165823</text>
<text text-anchor="start" x="8" y="-284.6" font-family="Times,serif" font-size="13.00">Generated by RailRoady 1.1.0</text>
<text text-anchor="start" x="8" y="-270.6" font-family="Times,serif" font-size="13.00">http://railroady.prestonlee.com</text>
</g>
<!-- Email -->
<g id="node2" class="node"><title>Email</title>
<polygon fill="none" stroke="black" points="226,-279 226,-325 280,-325 280,-279 226,-279"/>
<text text-anchor="middle" x="253" y="-309.8" font-family="Times,serif" font-size="14.00">Email</text>
<polyline fill="none" stroke="black" points="226,-302 280,-302 "/>
<text text-anchor="middle" x="253" y="-286.8" font-family="Times,serif" font-size="14.00"> </text>
</g>
<!-- User -->
<g id="node3" class="node"><title>User</title>
<path fill="none" stroke="black" d="M310.5,-189C310.5,-189 495.5,-189 495.5,-189 501.5,-189 507.5,-195 507.5,-201 507.5,-201 507.5,-403 507.5,-403 507.5,-409 501.5,-415 495.5,-415 495.5,-415 310.5,-415 310.5,-415 304.5,-415 298.5,-409 298.5,-403 298.5,-403 298.5,-201 298.5,-201 298.5,-195 304.5,-189 310.5,-189"/>
<text text-anchor="middle" x="403" y="-399.8" font-family="Times,serif" font-size="14.00">User</text>
<polyline fill="none" stroke="black" points="298.5,-392 507.5,-392 "/>
<text text-anchor="start" x="306.5" y="-376.8" font-family="Times,serif" font-size="14.00">id :integer</text>
<text text-anchor="start" x="306.5" y="-361.8" font-family="Times,serif" font-size="14.00">email :string</text>
<text text-anchor="start" x="306.5" y="-346.8" font-family="Times,serif" font-size="14.00">encrypted_password :string</text>
<text text-anchor="start" x="306.5" y="-331.8" font-family="Times,serif" font-size="14.00">reset_password_token :string</text>
<text text-anchor="start" x="306.5" y="-316.8" font-family="Times,serif" font-size="14.00">reset_password_sent_at :datetime</text>
<text text-anchor="start" x="306.5" y="-301.8" font-family="Times,serif" font-size="14.00">remember_created_at :datetime</text>
<text text-anchor="start" x="306.5" y="-286.8" font-family="Times,serif" font-size="14.00">sign_in_count :integer</text>
<text text-anchor="start" x="306.5" y="-271.8" font-family="Times,serif" font-size="14.00">current_sign_in_at :datetime</text>
<text text-anchor="start" x="306.5" y="-256.8" font-family="Times,serif" font-size="14.00">last_sign_in_at :datetime</text>
<text text-anchor="start" x="306.5" y="-241.8" font-family="Times,serif" font-size="14.00">current_sign_in_ip :string</text>
<text text-anchor="start" x="306.5" y="-226.8" font-family="Times,serif" font-size="14.00">last_sign_in_ip :string</text>
<text text-anchor="start" x="306.5" y="-211.8" font-family="Times,serif" font-size="14.00">created_at :datetime</text>
<text text-anchor="start" x="306.5" y="-196.8" font-family="Times,serif" font-size="14.00">updated_at :datetime</text>
</g>
<!-- Vlan -->
<g id="node4" class="node"><title>Vlan</title>
<path fill="none" stroke="black" d="M537.5,-196.5C537.5,-196.5 648.5,-196.5 648.5,-196.5 654.5,-196.5 660.5,-202.5 660.5,-208.5 660.5,-208.5 660.5,-395.5 660.5,-395.5 660.5,-401.5 654.5,-407.5 648.5,-407.5 648.5,-407.5 537.5,-407.5 537.5,-407.5 531.5,-407.5 525.5,-401.5 525.5,-395.5 525.5,-395.5 525.5,-208.5 525.5,-208.5 525.5,-202.5 531.5,-196.5 537.5,-196.5"/>
<text text-anchor="middle" x="593" y="-392.3" font-family="Times,serif" font-size="14.00">Vlan</text>
<polyline fill="none" stroke="black" points="525.5,-384.5 660.5,-384.5 "/>
<text text-anchor="start" x="533.5" y="-369.3" font-family="Times,serif" font-size="14.00">id :integer</text>
<text text-anchor="start" x="533.5" y="-354.3" font-family="Times,serif" font-size="14.00">vlan_code :integer</text>
<text text-anchor="start" x="533.5" y="-339.3" font-family="Times,serif" font-size="14.00">network :string</text>
<text text-anchor="start" x="533.5" y="-324.3" font-family="Times,serif" font-size="14.00">netmask :string</text>
<text text-anchor="start" x="533.5" y="-309.3" font-family="Times,serif" font-size="14.00">host_min :string</text>
<text text-anchor="start" x="533.5" y="-294.3" font-family="Times,serif" font-size="14.00">host_max :string</text>
<text text-anchor="start" x="533.5" y="-279.3" font-family="Times,serif" font-size="14.00">hosts_num :integer</text>
<text text-anchor="start" x="533.5" y="-264.3" font-family="Times,serif" font-size="14.00">gateway :string</text>
<text text-anchor="start" x="533.5" y="-249.3" font-family="Times,serif" font-size="14.00">dns :string</text>
<text text-anchor="start" x="533.5" y="-234.3" font-family="Times,serif" font-size="14.00">description :text</text>
<text text-anchor="start" x="533.5" y="-219.3" font-family="Times,serif" font-size="14.00">created_at :datetime</text>
<text text-anchor="start" x="533.5" y="-204.3" font-family="Times,serif" font-size="14.00">updated_at :datetime</text>
</g>
<!-- VlanIp -->
<g id="node5" class="node"><title>VlanIp</title>
<path fill="none" stroke="black" d="M537.5,-0.5C537.5,-0.5 648.5,-0.5 648.5,-0.5 654.5,-0.5 660.5,-6.5 660.5,-12.5 660.5,-12.5 660.5,-139.5 660.5,-139.5 660.5,-145.5 654.5,-151.5 648.5,-151.5 648.5,-151.5 537.5,-151.5 537.5,-151.5 531.5,-151.5 525.5,-145.5 525.5,-139.5 525.5,-139.5 525.5,-12.5 525.5,-12.5 525.5,-6.5 531.5,-0.5 537.5,-0.5"/>
<text text-anchor="middle" x="593" y="-136.3" font-family="Times,serif" font-size="14.00">VlanIp</text>
<polyline fill="none" stroke="black" points="525.5,-128.5 660.5,-128.5 "/>
<text text-anchor="start" x="533.5" y="-113.3" font-family="Times,serif" font-size="14.00">id :integer</text>
<text text-anchor="start" x="533.5" y="-98.3" font-family="Times,serif" font-size="14.00">vlan_id :integer</text>
<text text-anchor="start" x="533.5" y="-83.3" font-family="Times,serif" font-size="14.00">ip :string</text>
<text text-anchor="start" x="533.5" y="-68.3" font-family="Times,serif" font-size="14.00">hostname :string</text>
<text text-anchor="start" x="533.5" y="-53.3" font-family="Times,serif" font-size="14.00">status :boolean</text>
<text text-anchor="start" x="533.5" y="-38.3" font-family="Times,serif" font-size="14.00">note :text</text>
<text text-anchor="start" x="533.5" y="-23.3" font-family="Times,serif" font-size="14.00">created_at :datetime</text>
<text text-anchor="start" x="533.5" y="-8.3" font-family="Times,serif" font-size="14.00">updated_at :datetime</text>
</g>
<!-- Vlan&#45;&gt;VlanIp -->
<g id="edge1" class="edge"><title>Vlan&#45;&gt;VlanIp</title>
<path fill="none" stroke="#8726e9" d="M593,-188.102C593,-179.224 593,-170.353 593,-161.714"/>
<ellipse fill="none" stroke="#8726e9" cx="593" cy="-192.214" rx="4" ry="4"/>
<polygon fill="#8726e9" stroke="#8726e9" points="593,-161.691 597.5,-151.691 593,-156.691 593,-151.691 593,-151.691 593,-151.691 593,-156.691 588.5,-151.691 593,-161.691 593,-161.691"/>
</g>
</g>
</svg>
