<?xml version="1.0" encoding="UTF-8" standalone="no"?>
<!DOCTYPE svg PUBLIC "-//W3C//DTD SVG 1.1//EN"
 "http://www.w3.org/Graphics/SVG/1.1/DTD/svg11.dtd">
<!-- Generated by graphviz version 2.30.1 (20130511.1658)
 -->
<!-- Title: models_diagram Pages: 1 -->
<svg width="446pt" height="158pt"
 viewBox="0.00 0.00 446.00 158.00" xmlns="http://www.w3.org/2000/svg" xmlns:xlink="http://www.w3.org/1999/xlink">
<g id="graph0" class="graph" transform="scale(1 1) rotate(0) translate(4 154)">
<title>models_diagram</title>
<polygon fill="white" stroke="white" points="-4,5 -4,-154 443,-154 443,5 -4,5"/>
<!-- _diagram_info -->
<g id="node1" class="node"><title>_diagram_info</title>
<text text-anchor="start" x="8" y="-135.6" font-family="Times,serif" font-size="13.00">Models diagram</text>
<text text-anchor="start" x="8" y="-121.6" font-family="Times,serif" font-size="13.00">Date: Jun 21 2013 &#45; 10:49</text>
<text text-anchor="start" x="8" y="-107.6" font-family="Times,serif" font-size="13.00">Migration version: 20130507165823</text>
<text text-anchor="start" x="8" y="-93.6" font-family="Times,serif" font-size="13.00">Generated by RailRoady 1.1.0</text>
<text text-anchor="start" x="8" y="-79.6" font-family="Times,serif" font-size="13.00">http://railroady.prestonlee.com</text>
</g>
<!-- Email -->
<g id="node2" class="node"><title>Email</title>
<polygon fill="none" stroke="black" points="280,-129 226,-129 226,-93 280,-93 280,-129"/>
<text text-anchor="middle" x="253" y="-107.3" font-family="Times,serif" font-size="14.00">Email</text>
</g>
<!-- User -->
<g id="node3" class="node"><title>User</title>
<ellipse fill="none" stroke="black" cx="327" cy="-111" rx="28.3955" ry="18"/>
<text text-anchor="middle" x="327" y="-107.3" font-family="Times,serif" font-size="14.00">User</text>
</g>
<!-- Vlan -->
<g id="node4" class="node"><title>Vlan</title>
<ellipse fill="none" stroke="black" cx="402" cy="-111" rx="28.3955" ry="18"/>
<text text-anchor="middle" x="402" y="-107.3" font-family="Times,serif" font-size="14.00">Vlan</text>
</g>
<!-- VlanIp -->
<g id="node5" class="node"><title>VlanIp</title>
<ellipse fill="none" stroke="black" cx="402" cy="-18" rx="36.096" ry="18"/>
<text text-anchor="middle" x="402" y="-14.3" font-family="Times,serif" font-size="14.00">VlanIp</text>
</g>
<!-- Vlan&#45;&gt;VlanIp -->
<g id="edge1" class="edge"><title>Vlan&#45;&gt;VlanIp</title>
<path fill="none" stroke="#46bb96" d="M402,-84.7285C402,-72.7246 402,-58.3622 402,-46.1291"/>
<ellipse fill="none" stroke="#46bb96" cx="402" cy="-88.8836" rx="4" ry="4"/>
<polygon fill="#46bb96" stroke="#46bb96" points="402,-46.0397 406.5,-36.0396 402,-41.0397 402,-36.0397 402,-36.0397 402,-36.0397 402,-41.0397 397.5,-36.0397 402,-46.0397 402,-46.0397"/>
</g>
</g>
</svg>
